<svg width="20" height="20" viewBox="0 0 20 20" fill="none" xmlns="http://www.w3.org/2000/svg">
<g clip-path="url(#clip0_1_56)">
<path d="M1.60479 13.1277C2.82927 13.1277 4.03156 12.9362 5.17089 12.5597C5.72917 12.3693 6.41547 12.544 6.7562 12.8939L9.005 14.5915C11.613 13.1994 13.2194 11.5934 14.5926 9.00505L12.9449 6.81484C12.5168 6.38734 12.3633 5.76286 12.5472 5.17693C12.9254 4.03161 13.1174 2.8299 13.1174 1.6049C13.1174 0.719948 13.8373 0 14.7222 0H18.3952C19.2801 0 20 0.719948 20 1.60484C20 11.7481 11.748 20 1.60479 20C0.719896 20 -5.34058e-05 19.2801 -5.34058e-05 18.3952V14.7325C-1.90735e-06 13.8477 0.719948 13.1277 1.60479 13.1277Z" fill="#fefefe"/>
</g>
<defs>
<clipPath id="clip0_1_56">
<rect width="20" height="20" fill="white" transform="matrix(-1 0 0 1 20 0)"/>
</clipPath>
</defs>
</svg>
